<?xml version="1.0" encoding="utf-8"?>
<!-- Generator: Adobe Illustrator 16.0.0, SVG Export Plug-In . SVG Version: 6.00 Build 0)  -->
<!DOCTYPE svg PUBLIC "-//W3C//DTD SVG 1.1//EN" "http://www.w3.org/Graphics/SVG/1.1/DTD/svg11.dtd">
<svg version="1.1" id="Layer_1" xmlns="http://www.w3.org/2000/svg" xmlns:xlink="http://www.w3.org/1999/xlink" x="0px" y="0px"
	 width="35px" height="23px" viewBox="0 0 35 23" enable-background="new 0 0 35 23" xml:space="preserve">
<path fill="#FF7440" d="M24.486,22.859l-1.484-0.889c-0.264-0.158-0.324-0.514-0.129-0.752C25.036,18.587,27,15.732,27,12.194
	c-2.955,0-6-2.405-6-5.485c0-4.303,3.5-6.982,7-6.483s5.57,2.992,6,5.984c0.984,6.864-2.849,13.046-8.49,16.642
	C25.198,23.049,24.803,23.048,24.486,22.859z M3.486,22.859l-1.484-0.889c-0.264-0.158-0.324-0.514-0.129-0.752
	C4.036,18.587,6,15.732,6,12.194c-2.955,0-6-2.405-6-5.485c0-4.303,3.5-6.982,7-6.483s5.57,2.992,6,5.984
	c0.984,6.864-2.849,13.046-8.49,16.642C4.199,23.049,3.803,23.048,3.486,22.859z"/>
</svg>
