<svg xmlns="http://www.w3.org/2000/svg" xmlns:xlink="http://www.w3.org/1999/xlink" width="500" zoomAndPan="magnify" viewBox="0 0 375 374.999991" height="500" preserveAspectRatio="xMidYMid meet" version="1.0"><defs><clipPath id="e8361f3957"><path d="M 32 30.433594 L 343 30.433594 L 343 344.683594 L 32 344.683594 Z M 32 30.433594 " clip-rule="nonzero"/></clipPath><clipPath id="86c458f569"><path d="M 84 30.433594 L 343 30.433594 L 343 314 L 84 314 Z M 84 30.433594 " clip-rule="nonzero"/></clipPath></defs><g clip-path="url(#e8361f3957)"><path fill="#00a859" d="M 342.664062 187.558594 C 342.664062 190.128906 342.601562 192.699219 342.476562 195.265625 C 342.351562 197.835938 342.164062 200.398438 341.914062 202.957031 C 341.667969 205.515625 341.355469 208.070312 340.984375 210.613281 C 340.613281 213.15625 340.175781 215.6875 339.683594 218.210938 C 339.1875 220.734375 338.632812 223.242188 338.015625 225.734375 C 337.398438 228.230469 336.722656 230.707031 335.984375 233.167969 C 335.246094 235.628906 334.449219 238.070312 333.597656 240.492188 C 332.742188 242.914062 331.828125 245.3125 330.855469 247.6875 C 329.882812 250.0625 328.855469 252.414062 327.769531 254.738281 C 326.683594 257.0625 325.542969 259.359375 324.347656 261.625 C 323.152344 263.894531 321.902344 266.128906 320.59375 268.335938 C 319.289062 270.542969 317.933594 272.714844 316.523438 274.851562 C 315.113281 276.988281 313.652344 279.089844 312.140625 281.15625 C 310.625 283.222656 309.066406 285.25 307.457031 287.234375 C 305.84375 289.222656 304.1875 291.171875 302.484375 293.074219 C 300.777344 294.980469 299.027344 296.84375 297.234375 298.660156 C 295.4375 300.480469 293.601562 302.253906 291.71875 303.980469 C 289.839844 305.707031 287.917969 307.386719 285.957031 309.015625 C 283.992188 310.648438 281.992188 312.230469 279.953125 313.761719 C 277.914062 315.292969 275.839844 316.773438 273.730469 318.203125 C 271.617188 319.628906 269.476562 321.003906 267.296875 322.328125 C 265.121094 323.648438 262.914062 324.917969 260.671875 326.128906 C 258.433594 327.339844 256.167969 328.496094 253.875 329.597656 C 251.578125 330.695312 249.257812 331.738281 246.914062 332.722656 C 244.566406 333.707031 242.199219 334.632812 239.8125 335.496094 C 237.421875 336.363281 235.011719 337.171875 232.582031 337.917969 C 230.152344 338.664062 227.707031 339.347656 225.246094 339.972656 C 222.78125 340.597656 220.304688 341.160156 217.816406 341.664062 C 215.328125 342.164062 212.828125 342.605469 210.316406 342.980469 C 207.804688 343.359375 205.285156 343.671875 202.761719 343.925781 C 200.234375 344.175781 197.703125 344.367188 195.167969 344.492188 C 192.632812 344.617188 190.09375 344.683594 187.558594 344.683594 C 185.019531 344.683594 182.480469 344.617188 179.945312 344.492188 C 177.410156 344.367188 174.878906 344.175781 172.355469 343.925781 C 169.828125 343.671875 167.308594 343.359375 164.796875 342.980469 C 162.289062 342.605469 159.789062 342.164062 157.296875 341.664062 C 154.808594 341.160156 152.332031 340.597656 149.871094 339.972656 C 147.40625 339.347656 144.960938 338.664062 142.53125 337.917969 C 140.101562 337.171875 137.695312 336.363281 135.304688 335.496094 C 132.914062 334.632812 130.546875 333.707031 128.199219 332.722656 C 125.855469 331.738281 123.535156 330.695312 121.242188 329.597656 C 118.945312 328.496094 116.679688 327.339844 114.441406 326.128906 C 112.203125 324.917969 109.996094 323.648438 107.816406 322.328125 C 105.640625 321.003906 103.496094 319.628906 101.386719 318.203125 C 99.273438 316.773438 97.199219 315.292969 95.160156 313.761719 C 93.121094 312.230469 91.121094 310.648438 89.160156 309.015625 C 87.195312 307.386719 85.277344 305.707031 83.394531 303.980469 C 81.515625 302.253906 79.675781 300.480469 77.882812 298.660156 C 76.085938 296.84375 74.335938 294.980469 72.632812 293.074219 C 70.925781 291.171875 69.269531 289.222656 67.660156 287.234375 C 66.046875 285.25 64.488281 283.222656 62.976562 281.15625 C 61.464844 279.089844 60.003906 276.988281 58.59375 274.851562 C 57.179688 272.714844 55.824219 270.542969 54.519531 268.335938 C 53.214844 266.128906 51.964844 263.894531 50.765625 261.625 C 49.570312 259.359375 48.429688 257.0625 47.34375 254.738281 C 46.257812 252.414062 45.230469 250.0625 44.257812 247.6875 C 43.289062 245.3125 42.375 242.914062 41.519531 240.492188 C 40.664062 238.070312 39.867188 235.628906 39.128906 233.167969 C 38.394531 230.707031 37.71875 228.230469 37.101562 225.734375 C 36.484375 223.242188 35.925781 220.734375 35.433594 218.210938 C 34.9375 215.6875 34.503906 213.15625 34.128906 210.613281 C 33.757812 208.070312 33.449219 205.515625 33.199219 202.957031 C 32.949219 200.398438 32.761719 197.835938 32.640625 195.265625 C 32.515625 192.699219 32.453125 190.128906 32.453125 187.558594 C 32.453125 184.984375 32.515625 182.414062 32.640625 179.847656 C 32.761719 177.277344 32.949219 174.714844 33.199219 172.15625 C 33.449219 169.597656 33.757812 167.046875 34.128906 164.503906 C 34.503906 161.957031 34.9375 159.425781 35.433594 156.902344 C 35.925781 154.382812 36.484375 151.875 37.101562 149.378906 C 37.71875 146.882812 38.394531 144.40625 39.128906 141.945312 C 39.867188 139.484375 40.664062 137.042969 41.519531 134.625 C 42.375 132.203125 43.289062 129.804688 44.257812 127.429688 C 45.230469 125.050781 46.257812 122.703125 47.34375 120.378906 C 48.429688 118.054688 49.570312 115.757812 50.765625 113.488281 C 51.964844 111.222656 53.214844 108.984375 54.519531 106.777344 C 55.824219 104.574219 57.179688 102.402344 58.59375 100.261719 C 60.003906 98.125 61.464844 96.023438 62.976562 93.957031 C 64.488281 91.890625 66.046875 89.867188 67.660156 87.878906 C 69.269531 85.890625 70.925781 83.945312 72.632812 82.039062 C 74.335938 80.132812 76.085938 78.269531 77.882812 76.453125 C 79.675781 74.632812 81.515625 72.863281 83.394531 71.136719 C 85.277344 69.410156 87.195312 67.730469 89.160156 66.097656 C 91.121094 64.464844 93.121094 62.886719 95.160156 61.351562 C 97.199219 59.820312 99.273438 58.339844 101.386719 56.914062 C 103.496094 55.484375 105.640625 54.109375 107.816406 52.785156 C 109.996094 51.464844 112.203125 50.199219 114.441406 48.984375 C 116.679688 47.773438 118.945312 46.617188 121.242188 45.519531 C 123.535156 44.417969 125.855469 43.375 128.199219 42.394531 C 130.546875 41.410156 132.914062 40.484375 135.304688 39.617188 C 137.695312 38.75 140.101562 37.945312 142.53125 37.199219 C 144.960938 36.453125 147.40625 35.765625 149.871094 35.140625 C 152.332031 34.515625 154.808594 33.953125 157.296875 33.453125 C 159.789062 32.949219 162.289062 32.511719 164.796875 32.132812 C 167.308594 31.753906 169.828125 31.441406 172.355469 31.1875 C 174.878906 30.9375 177.410156 30.746094 179.945312 30.621094 C 182.480469 30.496094 185.019531 30.433594 187.558594 30.433594 C 190.09375 30.433594 192.632812 30.496094 195.167969 30.621094 C 197.703125 30.746094 200.234375 30.9375 202.761719 31.1875 C 205.285156 31.441406 207.804688 31.753906 210.316406 32.132812 C 212.828125 32.511719 215.328125 32.949219 217.816406 33.453125 C 220.304688 33.953125 222.78125 34.515625 225.246094 35.140625 C 227.707031 35.765625 230.152344 36.453125 232.582031 37.199219 C 235.011719 37.945312 237.421875 38.75 239.8125 39.617188 C 242.199219 40.484375 244.566406 41.410156 246.914062 42.394531 C 249.257812 43.375 251.578125 44.417969 253.875 45.519531 C 256.167969 46.617188 258.433594 47.773438 260.671875 48.984375 C 262.914062 50.199219 265.121094 51.464844 267.296875 52.785156 C 269.476562 54.109375 271.617188 55.484375 273.730469 56.914062 C 275.839844 58.339844 277.914062 59.820312 279.953125 61.351562 C 281.992188 62.886719 283.992188 64.464844 285.957031 66.097656 C 287.917969 67.730469 289.839844 69.410156 291.71875 71.136719 C 293.601562 72.863281 295.4375 74.632812 297.234375 76.453125 C 299.027344 78.269531 300.777344 80.132812 302.484375 82.039062 C 304.1875 83.945312 305.84375 85.890625 307.457031 87.878906 C 309.066406 89.867188 310.625 91.890625 312.140625 93.957031 C 313.652344 96.023438 315.113281 98.125 316.523438 100.261719 C 317.933594 102.402344 319.289062 104.574219 320.59375 106.777344 C 321.902344 108.984375 323.152344 111.222656 324.347656 113.488281 C 325.542969 115.757812 326.683594 118.054688 327.769531 120.378906 C 328.855469 122.703125 329.882812 125.050781 330.855469 127.429688 C 331.828125 129.804688 332.742188 132.203125 333.597656 134.625 C 334.449219 137.042969 335.246094 139.484375 335.984375 141.945312 C 336.722656 144.40625 337.398438 146.882812 338.015625 149.378906 C 338.632812 151.875 339.1875 154.382812 339.683594 156.902344 C 340.175781 159.425781 340.613281 161.957031 340.984375 164.503906 C 341.355469 167.046875 341.667969 169.597656 341.914062 172.15625 C 342.164062 174.714844 342.351562 177.277344 342.476562 179.847656 C 342.601562 182.414062 342.664062 184.984375 342.664062 187.558594 Z M 342.664062 187.558594 " fill-opacity="1" fill-rule="nonzero"/></g><g clip-path="url(#86c458f569)"><path fill="#038a4b" d="M 342.664062 187.558594 C 342.664062 100.714844 273.1875 30.433594 187.558594 30.433594 C 147.972656 30.433594 112.023438 45.378906 84.960938 70.015625 C 110.8125 50.628906 142.316406 39.320312 177.054688 39.320312 C 262.6875 39.320312 332.160156 109.601562 332.160156 196.039062 C 332.160156 242.894531 311.964844 284.902344 279.652344 313.984375 C 318.023438 285.304688 342.664062 239.257812 342.664062 187.558594 Z M 342.664062 187.558594 " fill-opacity="1" fill-rule="evenodd"/></g><path fill="#000000" d="M 165.746094 213.003906 C 163.726562 213.003906 162.109375 211.386719 162.109375 209.367188 L 162.109375 194.425781 L 158.070312 204.117188 C 157.667969 205.328125 156.457031 206.136719 154.839844 206.136719 C 153.222656 206.136719 152.011719 205.328125 151.609375 204.117188 L 147.570312 194.425781 L 147.570312 209.367188 C 147.570312 211.386719 145.953125 213.003906 143.933594 213.003906 C 141.914062 213.003906 140.296875 211.386719 140.296875 209.367188 L 140.296875 177.054688 C 140.296875 175.035156 141.511719 173.824219 143.125 173.421875 C 144.742188 173.015625 146.355469 173.824219 147.164062 175.441406 L 154.839844 193.210938 L 162.515625 175.441406 C 163.320312 173.824219 164.9375 173.015625 166.554688 173.421875 C 168.167969 173.824219 169.378906 175.035156 169.378906 177.054688 L 169.378906 209.367188 C 169.378906 211.386719 167.765625 213.003906 165.746094 213.003906 Z M 165.746094 213.003906 " fill-opacity="1" fill-rule="evenodd"/><path fill="#000000" d="M 126.160156 213.003906 C 124.140625 213.003906 122.527344 211.386719 122.527344 209.367188 L 122.527344 177.054688 C 122.527344 175.035156 124.140625 173.421875 126.160156 173.421875 C 128.179688 173.421875 129.796875 175.035156 129.796875 177.054688 L 129.796875 209.367188 C 129.796875 211.386719 128.179688 213.003906 126.160156 213.003906 Z M 126.160156 213.003906 " fill-opacity="1" fill-rule="evenodd"/><path fill="#000000" d="M 195.636719 213.003906 C 184.730469 213.003906 176.246094 204.117188 176.246094 193.210938 C 176.246094 182.304688 184.730469 173.421875 195.636719 173.421875 C 202.503906 173.421875 208.5625 176.652344 212.195312 182.710938 C 213.40625 184.324219 212.601562 186.75 210.984375 187.558594 C 209.367188 188.769531 206.945312 188.363281 206.136719 186.34375 C 203.714844 182.710938 200.078125 180.691406 195.636719 180.691406 C 188.769531 180.691406 183.519531 186.34375 183.519531 193.210938 C 183.519531 200.078125 188.769531 205.734375 195.636719 205.734375 C 199.269531 205.734375 202.90625 203.714844 205.328125 200.886719 L 202.90625 200.886719 C 200.886719 200.886719 199.269531 199.269531 199.269531 197.25 C 199.269531 195.230469 200.886719 193.617188 202.90625 193.617188 L 210.175781 193.617188 C 212.195312 193.617188 213.8125 195.230469 213.8125 197.25 C 213.8125 197.65625 213.8125 197.65625 213.8125 198.058594 C 213.8125 199.269531 213.8125 200.484375 213.003906 202.503906 C 209.367188 208.964844 202.90625 213.003906 195.636719 213.003906 Z M 195.636719 213.003906 " fill-opacity="1" fill-rule="evenodd"/><path fill="#000000" d="M 278.4375 290.960938 L 130.199219 290.960938 C 126.566406 290.960938 123.738281 288.132812 123.738281 284.09375 L 123.738281 226.332031 C 123.738281 224.3125 125.355469 222.699219 127.375 222.699219 L 238.855469 222.699219 L 238.855469 163.320312 L 127.375 163.320312 C 125.355469 163.320312 123.738281 161.707031 123.738281 159.6875 L 123.738281 91.019531 C 123.738281 86.980469 126.566406 84.152344 130.199219 84.152344 L 234.007812 84.152344 C 235.21875 84.152344 236.027344 84.558594 236.835938 85.367188 L 284.09375 132.625 C 284.902344 133.433594 285.304688 134.238281 285.304688 135.046875 L 285.304688 284.09375 C 285.304688 288.132812 282.074219 290.960938 278.4375 290.960938 Z M 131.007812 283.691406 L 278.035156 283.691406 L 278.035156 136.664062 L 232.796875 91.425781 L 131.007812 91.425781 L 131.007812 156.050781 L 240.066406 156.050781 C 243.296875 156.050781 246.125 159.28125 246.125 162.917969 L 246.125 223.101562 C 246.125 227.140625 243.296875 229.96875 240.066406 229.96875 L 131.007812 229.96875 Z M 131.007812 283.691406 " fill-opacity="1" fill-rule="evenodd"/><path fill="#000000" d="M 281.671875 138.683594 L 237.238281 138.683594 C 233.605469 138.683594 230.371094 135.855469 230.371094 132.21875 L 230.371094 87.789062 C 230.371094 85.769531 231.988281 84.152344 234.007812 84.152344 L 281.671875 84.152344 C 283.691406 84.152344 285.304688 85.769531 285.304688 87.789062 L 285.304688 135.046875 C 285.304688 137.066406 283.691406 138.683594 281.671875 138.683594 Z M 237.644531 131.414062 L 278.035156 131.414062 L 278.035156 91.425781 L 237.644531 91.425781 Z M 237.644531 131.414062 " fill-opacity="1" fill-rule="evenodd"/><path fill="#000000" d="M 93.445312 246.933594 C 91.425781 246.933594 89.808594 245.316406 89.808594 243.296875 L 89.808594 177.863281 C 89.808594 166.148438 98.289062 156.050781 108.792969 156.050781 L 240.066406 156.050781 C 243.296875 156.050781 246.125 159.28125 246.125 162.917969 L 246.125 223.101562 C 246.125 227.140625 243.296875 229.96875 240.066406 229.96875 L 110.410156 229.96875 C 103.136719 229.96875 97.078125 236.027344 97.078125 243.296875 C 97.078125 245.316406 95.464844 246.933594 93.445312 246.933594 Z M 108.792969 163.320312 C 102.328125 163.320312 97.078125 170.1875 97.078125 177.863281 L 97.078125 227.546875 C 100.714844 224.71875 105.5625 222.699219 110.410156 222.699219 L 238.855469 222.699219 L 238.855469 163.320312 Z M 108.792969 163.320312 " fill-opacity="1" fill-rule="evenodd"/><path fill="#000000" d="M 127.375 266.320312 L 110.410156 266.320312 C 99.097656 266.320312 89.808594 257.03125 89.808594 245.722656 L 89.808594 243.296875 C 89.808594 231.988281 99.097656 222.699219 110.410156 222.699219 L 127.375 222.699219 C 129.394531 222.699219 131.007812 224.3125 131.007812 226.332031 L 131.007812 262.6875 C 131.007812 264.707031 129.394531 266.320312 127.375 266.320312 Z M 110.410156 229.96875 C 103.136719 229.96875 97.078125 236.027344 97.078125 243.296875 L 97.078125 245.722656 C 97.078125 252.992188 103.136719 259.050781 110.410156 259.050781 L 123.738281 259.050781 L 123.738281 229.96875 Z M 110.410156 229.96875 " fill-opacity="1" fill-rule="evenodd"/><path fill="#000000" d="M 213.40625 143.53125 L 147.972656 143.53125 C 143.933594 143.53125 140.703125 140.296875 140.703125 136.257812 L 140.703125 111.621094 C 140.703125 107.582031 143.933594 104.347656 147.972656 104.347656 L 213.40625 104.347656 C 217.449219 104.347656 220.679688 107.582031 220.679688 111.621094 L 220.679688 136.257812 C 220.679688 140.296875 217.449219 143.53125 213.40625 143.53125 Z M 213.40625 111.621094 L 147.972656 111.621094 L 147.972656 136.257812 L 213.40625 136.257812 Z M 213.40625 111.621094 " fill-opacity="1" fill-rule="evenodd"/><path fill="#000000" d="M 266.320312 244.511719 L 255.011719 244.511719 C 252.992188 244.511719 251.375 242.894531 251.375 240.875 C 251.375 238.855469 252.992188 237.238281 255.011719 237.238281 L 266.320312 237.238281 C 268.339844 237.238281 269.957031 238.855469 269.957031 240.875 C 269.957031 242.894531 268.339844 244.511719 266.320312 244.511719 Z M 241.683594 244.511719 L 142.316406 244.511719 C 140.296875 244.511719 138.683594 242.894531 138.683594 240.875 C 138.683594 238.855469 140.296875 237.238281 142.316406 237.238281 L 241.683594 237.238281 C 243.703125 237.238281 245.316406 238.855469 245.316406 240.875 C 245.316406 242.894531 243.703125 244.511719 241.683594 244.511719 Z M 241.683594 244.511719 " fill-opacity="1" fill-rule="evenodd"/><path fill="#000000" d="M 266.320312 260.667969 L 189.171875 260.667969 C 187.152344 260.667969 185.539062 259.050781 185.539062 257.03125 C 185.539062 255.011719 187.152344 253.394531 189.171875 253.394531 L 266.320312 253.394531 C 268.339844 253.394531 269.957031 255.011719 269.957031 257.03125 C 269.957031 259.050781 268.339844 260.667969 266.320312 260.667969 Z M 175.441406 260.667969 L 142.316406 260.667969 C 140.296875 260.667969 138.683594 259.050781 138.683594 257.03125 C 138.683594 255.011719 140.296875 253.394531 142.316406 253.394531 L 175.441406 253.394531 C 177.460938 253.394531 179.074219 255.011719 179.074219 257.03125 C 179.074219 259.050781 177.460938 260.667969 175.441406 260.667969 Z M 175.441406 260.667969 " fill-opacity="1" fill-rule="evenodd"/><path fill="#000000" d="M 266.320312 276.417969 L 227.546875 276.417969 C 225.527344 276.417969 223.910156 274.804688 223.910156 272.785156 C 223.910156 270.765625 225.527344 269.148438 227.546875 269.148438 L 266.320312 269.148438 C 268.339844 269.148438 269.957031 270.765625 269.957031 272.785156 C 269.957031 274.804688 268.339844 276.417969 266.320312 276.417969 Z M 214.214844 276.417969 L 142.316406 276.417969 C 140.296875 276.417969 138.683594 274.804688 138.683594 272.785156 C 138.683594 270.765625 140.296875 269.148438 142.316406 269.148438 L 214.214844 269.148438 C 215.832031 269.148438 217.851562 270.765625 217.851562 272.785156 C 217.851562 274.804688 215.832031 276.417969 214.214844 276.417969 Z M 214.214844 276.417969 " fill-opacity="1" fill-rule="evenodd"/><path fill="#ef5350" d="M 127.375 222.699219 L 238.855469 222.699219 L 238.855469 163.320312 L 108.792969 163.320312 C 102.328125 163.320312 97.078125 170.1875 97.078125 177.863281 L 97.078125 227.546875 C 100.714844 224.71875 105.5625 222.699219 110.410156 222.699219 Z M 195.636719 213.003906 C 184.730469 213.003906 176.246094 204.117188 176.246094 193.210938 C 176.246094 182.304688 184.730469 173.421875 195.636719 173.421875 C 202.503906 173.421875 208.5625 176.652344 212.195312 182.710938 C 213.40625 184.324219 212.601562 186.75 210.984375 187.558594 C 209.367188 188.769531 206.945312 188.363281 206.136719 186.34375 C 203.714844 182.710938 200.078125 180.691406 195.636719 180.691406 C 188.769531 180.691406 183.519531 186.34375 183.519531 193.210938 C 183.519531 200.078125 188.769531 205.734375 195.636719 205.734375 C 199.269531 205.734375 202.90625 203.714844 205.328125 200.886719 L 202.90625 200.886719 C 200.886719 200.886719 199.269531 199.269531 199.269531 197.25 C 199.269531 195.230469 200.886719 193.617188 202.90625 193.617188 L 210.175781 193.617188 C 212.195312 193.617188 213.8125 195.230469 213.8125 197.25 C 213.8125 197.65625 213.8125 197.65625 213.8125 198.058594 C 213.8125 199.269531 213.8125 200.484375 213.003906 202.503906 C 209.367188 208.964844 202.90625 213.003906 195.636719 213.003906 Z M 129.796875 209.367188 C 129.796875 211.386719 128.179688 213.003906 126.160156 213.003906 C 124.140625 213.003906 122.527344 211.386719 122.527344 209.367188 L 122.527344 177.054688 C 122.527344 175.035156 124.140625 173.421875 126.160156 173.421875 C 128.179688 173.421875 129.796875 175.035156 129.796875 177.054688 Z M 169.378906 209.367188 C 169.378906 211.386719 167.765625 213.003906 165.746094 213.003906 C 163.726562 213.003906 162.109375 211.386719 162.109375 209.367188 L 162.109375 194.425781 L 158.070312 204.117188 C 157.667969 205.328125 156.457031 206.136719 154.839844 206.136719 C 153.222656 206.136719 152.011719 205.328125 151.609375 204.117188 L 147.570312 194.425781 L 147.570312 209.367188 C 147.570312 211.386719 145.953125 213.003906 143.933594 213.003906 C 141.914062 213.003906 140.296875 211.386719 140.296875 209.367188 L 140.296875 177.054688 C 140.296875 175.035156 141.511719 173.824219 143.125 173.421875 C 144.742188 173.015625 146.355469 173.824219 147.164062 175.441406 L 154.839844 193.210938 L 162.515625 175.441406 C 163.320312 173.824219 164.9375 173.015625 166.554688 173.421875 C 168.167969 173.824219 169.378906 175.035156 169.378906 177.054688 Z M 169.378906 209.367188 " fill-opacity="1" fill-rule="evenodd"/><path fill="#f0f0f0" d="M 131.007812 156.050781 L 240.066406 156.050781 C 243.296875 156.050781 246.125 159.28125 246.125 162.917969 L 246.125 223.101562 C 246.125 227.140625 243.296875 229.96875 240.066406 229.96875 L 131.007812 229.96875 L 131.007812 283.691406 L 278.035156 283.691406 L 278.035156 138.683594 L 237.238281 138.683594 C 233.605469 138.683594 230.371094 135.855469 230.371094 132.21875 L 230.371094 91.425781 L 131.007812 91.425781 Z M 142.316406 237.238281 L 241.683594 237.238281 C 243.703125 237.238281 245.316406 238.855469 245.316406 240.875 C 245.316406 242.894531 243.703125 244.511719 241.683594 244.511719 L 142.316406 244.511719 C 140.296875 244.511719 138.683594 242.894531 138.683594 240.875 C 138.683594 238.855469 140.296875 237.238281 142.316406 237.238281 Z M 189.171875 253.394531 L 266.320312 253.394531 C 268.339844 253.394531 269.957031 255.011719 269.957031 257.03125 C 269.957031 259.050781 268.339844 260.667969 266.320312 260.667969 L 189.171875 260.667969 C 187.152344 260.667969 185.539062 259.050781 185.539062 257.03125 C 185.539062 255.011719 187.152344 253.394531 189.171875 253.394531 Z M 227.546875 269.148438 L 266.320312 269.148438 C 268.339844 269.148438 269.957031 270.765625 269.957031 272.785156 C 269.957031 274.804688 268.339844 276.417969 266.320312 276.417969 L 227.546875 276.417969 C 225.527344 276.417969 223.910156 274.804688 223.910156 272.785156 C 223.910156 270.765625 225.527344 269.148438 227.546875 269.148438 Z M 142.316406 269.148438 L 214.214844 269.148438 C 215.832031 269.148438 217.851562 270.765625 217.851562 272.785156 C 217.851562 274.804688 215.832031 276.417969 214.214844 276.417969 L 142.316406 276.417969 C 140.296875 276.417969 138.683594 274.804688 138.683594 272.785156 C 138.683594 270.765625 140.296875 269.148438 142.316406 269.148438 Z M 142.316406 253.394531 L 175.441406 253.394531 C 177.460938 253.394531 179.074219 255.011719 179.074219 257.03125 C 179.074219 259.050781 177.460938 260.667969 175.441406 260.667969 L 142.316406 260.667969 C 140.296875 260.667969 138.683594 259.050781 138.683594 257.03125 C 138.683594 255.011719 140.296875 253.394531 142.316406 253.394531 Z M 255.011719 237.238281 L 266.320312 237.238281 C 268.339844 237.238281 269.957031 238.855469 269.957031 240.875 C 269.957031 242.894531 268.339844 244.511719 266.320312 244.511719 L 255.011719 244.511719 C 252.992188 244.511719 251.375 242.894531 251.375 240.875 C 251.375 238.855469 252.992188 237.238281 255.011719 237.238281 Z M 213.40625 143.53125 L 147.972656 143.53125 C 143.933594 143.53125 140.703125 140.296875 140.703125 136.257812 L 140.703125 111.621094 C 140.703125 107.582031 143.933594 104.347656 147.972656 104.347656 L 213.40625 104.347656 C 217.449219 104.347656 220.679688 107.582031 220.679688 111.621094 L 220.679688 136.257812 C 220.679688 140.296875 217.449219 143.53125 213.40625 143.53125 Z M 213.40625 143.53125 " fill-opacity="1" fill-rule="evenodd"/><path fill="#e6e6e6" d="M 147.972656 111.621094 L 213.40625 111.621094 L 213.40625 136.257812 L 147.972656 136.257812 Z M 147.972656 111.621094 " fill-opacity="1" fill-rule="evenodd"/><path fill="#e6e6e6" d="M 237.644531 96.675781 L 237.644531 131.414062 L 272.785156 131.414062 Z M 237.644531 96.675781 " fill-opacity="1" fill-rule="evenodd"/><path fill="#f0f0f0" d="M 242.894531 91.425781 L 278.035156 126.160156 L 278.035156 91.425781 Z M 242.894531 91.425781 " fill-opacity="1" fill-rule="evenodd"/><path fill="#f27472" d="M 123.738281 259.050781 L 123.738281 229.96875 L 110.410156 229.96875 C 103.136719 229.96875 97.078125 236.027344 97.078125 243.296875 L 97.078125 245.722656 C 97.078125 252.992188 103.136719 259.050781 110.410156 259.050781 Z M 123.738281 259.050781 " fill-opacity="1" fill-rule="evenodd"/></svg>