<?xml version="1.0" encoding="utf-8"?>
<!-- Generator: Adobe Illustrator 16.0.0, SVG Export Plug-In . SVG Version: 6.00 Build 0)  -->
<!DOCTYPE svg PUBLIC "-//W3C//DTD SVG 1.1//EN" "http://www.w3.org/Graphics/SVG/1.1/DTD/svg11.dtd">
<svg version="1.1" id="_x32_" xmlns="http://www.w3.org/2000/svg" xmlns:xlink="http://www.w3.org/1999/xlink" x="0px" y="0px"
	 width="800px" height="800px" viewBox="0 0 800 800" enable-background="new 0 0 800 800" xml:space="preserve">
<g>
	<path fill="#FF7440" d="M186.675,104.047C83.577,104.047,0,187.647,0,290.781C0,393.879,83.577,477.48,186.675,477.48
		c0,0-0.903,69.362-57.253,169.193c-6.259,20.003,4.898,41.305,24.914,47.528c14.201,4.467,29.146,0.125,38.795-9.982
		C322.701,542.5,373.42,375.706,373.42,290.781C373.42,187.647,289.846,104.047,186.675,104.047z"/>
	<path fill="#FF7440" d="M613.253,104.047c-103.099,0-186.675,83.602-186.675,186.734c0,103.098,83.576,186.698,186.675,186.698
		c0,0-0.903,69.362-57.253,169.193c-6.26,20.003,4.9,41.305,24.914,47.528c14.201,4.467,29.146,0.125,38.794-9.982
		C749.279,542.5,800,375.706,800,290.781C800,187.647,716.424,104.047,613.253,104.047z"/>
</g>
</svg>
