<?xml version="1.0" encoding="utf-8"?>
<!-- Generator: Adobe Illustrator 16.0.0, SVG Export Plug-In . SVG Version: 6.00 Build 0)  -->
<!DOCTYPE svg PUBLIC "-//W3C//DTD SVG 1.1//EN" "http://www.w3.org/Graphics/SVG/1.1/DTD/svg11.dtd">
<svg version="1.1" id="Layer_1" xmlns="http://www.w3.org/2000/svg" xmlns:xlink="http://www.w3.org/1999/xlink" x="0px" y="0px"
	 width="595.28px" height="841.89px" viewBox="0 0 595.28 841.89" enable-background="new 0 0 595.28 841.89" xml:space="preserve">
<g>
	<path fill-rule="evenodd" clip-rule="evenodd" fill="#FF7440" d="M-207.469,360.276c4.835-0.018,8.316,2.36,10.996,6.122
		c2.339,3.283,3.608,7.011,4.192,10.968c0.245,1.658,0.397,3.342,0.434,5.017c0.163,7.526-2.865,13.572-8.68,18.258
		c-4.348,3.503-9.263,5.834-14.738,6.986c-1.408,0.296-2.399-0.306-2.219-1.872c0.14-1.209,0.189-2.428,0.319-3.639
		c0.087-0.811,0.695-1.148,1.406-1.28c2.039-0.378,3.815-1.31,5.465-2.522c0.606-0.445,1.335-0.796,1.788-1.366
		c2.06-2.585,4.256-5.119,4.658-8.604c0.044-0.384,0.034-0.782-0.01-1.167c-0.094-0.815-0.663-1.368-1.478-1.293
		c-1.062,0.097-2.107,0.362-3.167,0.49c-4.935,0.598-10.191-1.131-12.926-5.428c-1.474-2.316-1.962-4.877-1.799-7.616
		c0.373-6.242,5.326-11.425,12.355-12.654C-209.749,360.482-208.604,360.407-207.469,360.276z"/>
	<path fill-rule="evenodd" clip-rule="evenodd" fill="#FF7440" d="M-246.972,360.315c3.832-0.007,6.907,1.525,9.471,4.332
		c3.362,3.682,4.935,8.122,5.683,12.923c0.602,3.858,0.594,7.72-0.396,11.522c-0.878,3.374-2.653,6.232-5.022,8.796
		c-4.165,4.509-9.298,7.347-15.097,9.108c-0.884,0.269-1.789,0.482-2.696,0.661c-1.302,0.258-2.082-0.427-2.007-1.759
		c0.066-1.19,0.199-2.377,0.28-3.567c0.057-0.835,0.528-1.287,1.296-1.463c5.41-1.243,8.835-4.811,11.206-9.592
		c0.566-1.142,0.927-2.352,0.87-3.664c-0.055-1.265-0.634-1.875-1.873-1.741c-0.94,0.102-1.861,0.392-2.801,0.488
		c-4.47,0.457-8.495-0.525-11.715-3.851c-1.759-1.817-2.654-4.056-2.959-6.549c-0.952-7.764,4.59-13.644,11.563-15.146
		c0.5-0.107,1.001-0.226,1.507-0.281C-248.77,360.437-247.87,360.386-246.972,360.315z"/>
</g>
</svg>
