<?xml version="1.0" encoding="iso-8859-1"?>
<!-- Uploaded to: SVG Repo, www.svgrepo.com, Generator: SVG Repo Mixer Tools -->
<svg height="800px" width="800px" version="1.1" id="Layer_1" xmlns="http://www.w3.org/2000/svg" xmlns:xlink="http://www.w3.org/1999/xlink" 
	 viewBox="0 0 512 512" xml:space="preserve">
<path style="fill:#69539C;" d="M262.254,477.934H50.019c-9.81,0-17.762-7.953-17.762-17.762V247.938
	c0-9.81,7.953-17.762,17.762-17.762h212.235c9.81,0,17.762,7.953,17.762,17.762v212.235
	C280.017,469.982,272.064,477.934,262.254,477.934z"/>
<g>
	<circle style="fill:#F5BA3D;" cx="105.142" cy="304.934" r="8.881"/>
	<circle style="fill:#F5BA3D;" cx="156.132" cy="304.934" r="8.881"/>
	<circle style="fill:#F5BA3D;" cx="133.171" cy="341.643" r="8.881"/>
	<circle style="fill:#F5BA3D;" cx="184.161" cy="341.643" r="8.881"/>
	<circle style="fill:#F5BA3D;" cx="133.171" cy="411.899" r="8.881"/>
	<circle style="fill:#F5BA3D;" cx="184.161" cy="411.899" r="8.881"/>
	<circle style="fill:#F5BA3D;" cx="210.828" cy="304.934" r="8.881"/>
	<circle style="fill:#F5BA3D;" cx="105.142" cy="377.168" r="8.881"/>
	<circle style="fill:#F5BA3D;" cx="156.132" cy="377.168" r="8.881"/>
	<circle style="fill:#F5BA3D;" cx="210.828" cy="377.168" r="8.881"/>
</g>
<g>
	<path style="fill:#4F4482;" d="M55.631,278.513H8.881c-4.906,0-8.881-3.976-8.881-8.881c0-4.905,3.975-8.881,8.881-8.881h46.75
		c4.906,0,8.881,3.976,8.881,8.881C64.512,274.536,60.537,278.513,55.631,278.513z"/>
	<path style="fill:#4F4482;" d="M55.631,320.623H8.881c-4.906,0-8.881-3.976-8.881-8.881c0-4.905,3.975-8.881,8.881-8.881h46.75
		c4.906,0,8.881,3.976,8.881,8.881C64.512,316.646,60.537,320.623,55.631,320.623z"/>
	<path style="fill:#4F4482;" d="M55.631,362.733H8.881c-4.906,0-8.881-3.976-8.881-8.881c0-4.905,3.975-8.881,8.881-8.881h46.75
		c4.906,0,8.881,3.976,8.881,8.881C64.512,358.756,60.537,362.733,55.631,362.733z"/>
	<path style="fill:#4F4482;" d="M55.631,404.843H8.881c-4.906,0-8.881-3.976-8.881-8.881c0-4.905,3.975-8.881,8.881-8.881h46.75
		c4.906,0,8.881,3.976,8.881,8.881C64.512,400.866,60.537,404.843,55.631,404.843z"/>
	<path style="fill:#4F4482;" d="M55.631,446.953H8.881c-4.906,0-8.881-3.976-8.881-8.881c0-4.905,3.975-8.881,8.881-8.881h46.75
		c4.906,0,8.881,3.976,8.881,8.881C64.512,442.976,60.537,446.953,55.631,446.953z"/>
	<path style="fill:#4F4482;" d="M303.391,278.513h-46.75c-4.906,0-8.881-3.976-8.881-8.881c0-4.905,3.975-8.881,8.881-8.881h46.75
		c4.906,0,8.881,3.976,8.881,8.881C312.272,274.536,308.297,278.513,303.391,278.513z"/>
	<path style="fill:#4F4482;" d="M303.391,320.623h-46.75c-4.906,0-8.881-3.976-8.881-8.881c0-4.905,3.975-8.881,8.881-8.881h46.75
		c4.906,0,8.881,3.976,8.881,8.881C312.272,316.646,308.297,320.623,303.391,320.623z"/>
	<path style="fill:#4F4482;" d="M303.391,362.733h-46.75c-4.906,0-8.881-3.976-8.881-8.881c0-4.905,3.975-8.881,8.881-8.881h46.75
		c4.906,0,8.881,3.976,8.881,8.881C312.272,358.756,308.297,362.733,303.391,362.733z"/>
	<path style="fill:#4F4482;" d="M303.391,404.843h-46.75c-4.906,0-8.881-3.976-8.881-8.881c0-4.905,3.975-8.881,8.881-8.881h46.75
		c4.906,0,8.881,3.976,8.881,8.881C312.272,400.866,308.297,404.843,303.391,404.843z"/>
	<path style="fill:#4F4482;" d="M303.391,446.953h-46.75c-4.906,0-8.881-3.976-8.881-8.881c0-4.905,3.975-8.881,8.881-8.881h46.75
		c4.906,0,8.881,3.976,8.881,8.881C312.272,442.976,308.297,446.953,303.391,446.953z"/>
	<path style="fill:#4F4482;" d="M71.915,509.987c-4.906,0-8.881-3.976-8.881-8.881v-46.75c0-4.905,3.975-8.881,8.881-8.881
		c4.906,0,8.881,3.976,8.881,8.881v46.75C80.797,506.01,76.821,509.987,71.915,509.987z"/>
	<path style="fill:#4F4482;" d="M114.027,509.987c-4.906,0-8.881-3.976-8.881-8.881v-46.75c0-4.905,3.975-8.881,8.881-8.881
		s8.881,3.976,8.881,8.881v46.75C122.908,506.01,118.933,509.987,114.027,509.987z"/>
	<path style="fill:#4F4482;" d="M156.137,509.987c-4.906,0-8.881-3.976-8.881-8.881v-46.75c0-4.905,3.975-8.881,8.881-8.881
		c4.906,0,8.881,3.976,8.881,8.881v46.75C165.018,506.01,161.041,509.987,156.137,509.987z"/>
	<path style="fill:#4F4482;" d="M198.247,509.987c-4.906,0-8.881-3.976-8.881-8.881v-46.75c0-4.905,3.975-8.881,8.881-8.881
		s8.881,3.976,8.881,8.881v46.75C207.128,506.01,203.153,509.987,198.247,509.987z"/>
	<path style="fill:#4F4482;" d="M240.357,509.987c-4.906,0-8.881-3.976-8.881-8.881v-46.75c0-4.905,3.975-8.881,8.881-8.881
		s8.881,3.976,8.881,8.881v46.75C249.238,506.01,245.261,509.987,240.357,509.987z"/>
	<path style="fill:#4F4482;" d="M71.915,262.228c-4.906,0-8.881-3.976-8.881-8.881v-46.75c0-4.905,3.975-8.881,8.881-8.881
		c4.906,0,8.881,3.976,8.881,8.881v46.75C80.797,258.252,76.821,262.228,71.915,262.228z"/>
	<path style="fill:#4F4482;" d="M114.027,262.228c-4.906,0-8.881-3.976-8.881-8.881v-46.75c0-4.905,3.975-8.881,8.881-8.881
		s8.881,3.976,8.881,8.881v46.75C122.908,258.252,118.933,262.228,114.027,262.228z"/>
	<path style="fill:#4F4482;" d="M156.137,262.228c-4.906,0-8.881-3.976-8.881-8.881v-46.75c0-4.905,3.975-8.881,8.881-8.881
		c4.906,0,8.881,3.976,8.881,8.881v46.75C165.018,258.252,161.041,262.228,156.137,262.228z"/>
	<path style="fill:#4F4482;" d="M198.247,262.228c-4.906,0-8.881-3.976-8.881-8.881v-46.75c0-4.905,3.975-8.881,8.881-8.881
		s8.881,3.976,8.881,8.881v46.75C207.128,258.252,203.153,262.228,198.247,262.228z"/>
	<path style="fill:#4F4482;" d="M240.357,262.228c-4.906,0-8.881-3.976-8.881-8.881v-46.75c0-4.905,3.975-8.881,8.881-8.881
		s8.881,3.976,8.881,8.881v46.75C249.238,258.252,245.261,262.228,240.357,262.228z"/>
</g>
<path style="fill:#F871FF;" d="M469.142,212.793H320.99c-9.81,0-17.762-7.953-17.762-17.762V46.88
	c0-9.81,7.953-17.762,17.762-17.762h148.152c9.81,0,17.762,7.953,17.762,17.762v148.152
	C486.904,204.84,478.951,212.793,469.142,212.793z"/>
<g>
	<path style="fill:#B378DD;" d="M320.556,75.689h-34.659c-4.906,0-8.881-3.976-8.881-8.881s3.975-8.881,8.881-8.881h34.659
		c4.906,0,8.881,3.976,8.881,8.881S325.462,75.689,320.556,75.689z"/>
	<path style="fill:#B378DD;" d="M320.556,110.82h-34.659c-4.906,0-8.881-3.976-8.881-8.881s3.975-8.881,8.881-8.881h34.659
		c4.906,0,8.881,3.976,8.881,8.881S325.462,110.82,320.556,110.82z"/>
	<path style="fill:#B378DD;" d="M320.556,145.95h-34.659c-4.906,0-8.881-3.976-8.881-8.881s3.975-8.881,8.881-8.881h34.659
		c4.906,0,8.881,3.976,8.881,8.881S325.462,145.95,320.556,145.95z"/>
	<path style="fill:#B378DD;" d="M320.556,181.08h-34.659c-4.906,0-8.881-3.976-8.881-8.881s3.975-8.881,8.881-8.881h34.659
		c4.906,0,8.881,3.976,8.881,8.881S325.462,181.08,320.556,181.08z"/>
	<path style="fill:#B378DD;" d="M503.119,75.689h-34.659c-4.906,0-8.881-3.976-8.881-8.881s3.975-8.881,8.881-8.881h34.659
		c4.906,0,8.881,3.976,8.881,8.881S508.025,75.689,503.119,75.689z"/>
	<path style="fill:#B378DD;" d="M503.119,110.82h-34.659c-4.906,0-8.881-3.976-8.881-8.881s3.975-8.881,8.881-8.881h34.659
		c4.906,0,8.881,3.976,8.881,8.881S508.025,110.82,503.119,110.82z"/>
	<path style="fill:#B378DD;" d="M503.119,145.95h-34.659c-4.906,0-8.881-3.976-8.881-8.881s3.975-8.881,8.881-8.881h34.659
		c4.906,0,8.881,3.976,8.881,8.881S508.025,145.95,503.119,145.95z"/>
	<path style="fill:#B378DD;" d="M503.119,181.08h-34.659c-4.906,0-8.881-3.976-8.881-8.881s3.975-8.881,8.881-8.881h34.659
		c4.906,0,8.881,3.976,8.881,8.881S508.025,181.08,503.119,181.08z"/>
	<path style="fill:#B378DD;" d="M342.37,236.995c-4.906,0-8.881-3.976-8.881-8.881v-34.658c0-4.905,3.975-8.881,8.881-8.881
		c4.906,0,8.881,3.976,8.881,8.881v34.658C351.251,233.018,347.276,236.995,342.37,236.995z"/>
	<path style="fill:#B378DD;" d="M377.5,236.995c-4.906,0-8.881-3.976-8.881-8.881v-34.658c0-4.905,3.975-8.881,8.881-8.881
		c4.906,0,8.881,3.976,8.881,8.881v34.658C386.382,233.018,382.406,236.995,377.5,236.995z"/>
	<path style="fill:#B378DD;" d="M412.631,236.995c-4.906,0-8.881-3.976-8.881-8.881v-34.658c0-4.905,3.975-8.881,8.881-8.881
		c4.906,0,8.881,3.976,8.881,8.881v34.658C421.512,233.018,417.537,236.995,412.631,236.995z"/>
	<path style="fill:#B378DD;" d="M447.76,236.995c-4.906,0-8.881-3.976-8.881-8.881v-34.658c0-4.905,3.975-8.881,8.881-8.881
		c4.906,0,8.881,3.976,8.881,8.881v34.658C456.642,233.018,452.666,236.995,447.76,236.995z"/>
	<path style="fill:#B378DD;" d="M342.37,54.434c-4.906,0-8.881-3.976-8.881-8.881V10.894c0-4.905,3.975-8.881,8.881-8.881
		c4.906,0,8.881,3.976,8.881,8.881v34.658C351.251,50.457,347.276,54.434,342.37,54.434z"/>
	<path style="fill:#B378DD;" d="M377.5,54.434c-4.906,0-8.881-3.976-8.881-8.881V10.894c0-4.905,3.975-8.881,8.881-8.881
		c4.906,0,8.881,3.976,8.881,8.881v34.658C386.382,50.457,382.406,54.434,377.5,54.434z"/>
	<path style="fill:#B378DD;" d="M412.631,54.434c-4.906,0-8.881-3.976-8.881-8.881V10.894c0-4.905,3.975-8.881,8.881-8.881
		c4.906,0,8.881,3.976,8.881,8.881v34.658C421.512,50.457,417.537,54.434,412.631,54.434z"/>
	<path style="fill:#B378DD;" d="M447.76,54.434c-4.906,0-8.881-3.976-8.881-8.881V10.894c0-4.905,3.975-8.881,8.881-8.881
		c4.906,0,8.881,3.976,8.881,8.881v34.658C456.642,50.457,452.666,54.434,447.76,54.434z"/>
</g>
</svg>